<svg xmlns="http://www.w3.org/2000/svg" width="27.388" height="27.388" viewBox="0 0 27.388 27.388">
  <path id="dashboard" d="M26.588,27.388H16.33a.8.8,0,0,1-.8-.8V16.33a.8.8,0,0,1,.8-.8H26.588a.8.8,0,0,1,.8.8V26.588A.8.8,0,0,1,26.588,27.388Zm-9.012-9.812v7.765h7.765V17.576Zm-6.517,9.812H.8a.8.8,0,0,1-.8-.8V16.33a.8.8,0,0,1,.8-.8H11.059a.8.8,0,0,1,.8.8V26.588A.8.8,0,0,1,11.059,27.388ZM2.048,17.576v7.765H9.812V17.576Zm24.54-5.718H16.33a.8.8,0,0,1-.8-.8V.8a.8.8,0,0,1,.8-.8H26.588a.8.8,0,0,1,.8.8V11.059A.8.8,0,0,1,26.588,11.858ZM17.576,2.048V9.812h7.765V2.048Zm-6.517,9.811H.8a.8.8,0,0,1-.8-.8V.8A.8.8,0,0,1,.8,0H11.059a.8.8,0,0,1,.8.8V11.059A.8.8,0,0,1,11.059,11.858ZM2.048,2.048V9.812H9.812V2.048Z" fill="#bfc5d2"/>
</svg>
