<svg xmlns="http://www.w3.org/2000/svg" width="28.235" height="28.235" viewBox="0 0 28.235 28.235">
  <path id="Settings" d="M15.359,28.235H12.87a1.74,1.74,0,0,1-1.722-1.457l-.33-1.981a11.227,11.227,0,0,1-1.864-.767L7.3,25.21a1.714,1.714,0,0,1-1.008.324,1.734,1.734,0,0,1-1.234-.513L3.3,23.263a1.736,1.736,0,0,1-.189-2.248L4.27,19.4a10.9,10.9,0,0,1-.808-1.917l-2-.342A1.74,1.74,0,0,1,0,15.419V12.935a1.74,1.74,0,0,1,1.457-1.722l1.958-.33A11,11,0,0,1,4.2,8.954L3.02,7.3a1.739,1.739,0,0,1,.188-2.246L4.972,3.291A1.741,1.741,0,0,1,7.219,3.1L8.842,4.27a10.84,10.84,0,0,1,1.916-.808l.343-2A1.74,1.74,0,0,1,12.823,0h2.483a1.741,1.741,0,0,1,1.723,1.457l.33,1.958a11.013,11.013,0,0,1,1.994.82l1.64-1.168A1.714,1.714,0,0,1,22,2.743a1.738,1.738,0,0,1,1.234.512l1.757,1.758a1.735,1.735,0,0,1,.188,2.248L24.012,8.894a11.119,11.119,0,0,1,.8,1.924l1.982.335a1.719,1.719,0,0,1,1.445,1.723v2.483a1.743,1.743,0,0,1-1.457,1.723l-1.981.33a11.169,11.169,0,0,1-.8,1.922l1.168,1.64a1.739,1.739,0,0,1-.188,2.246L23.221,24.98a1.743,1.743,0,0,1-2.246.188L19.341,24a11.32,11.32,0,0,1-1.924.8l-.335,1.981A1.743,1.743,0,0,1,15.359,28.235ZM8.907,22.313a.816.816,0,0,1,.4.107,9.811,9.811,0,0,0,2.419.991.793.793,0,0,1,.583.637l.413,2.478a.153.153,0,0,0,.154.13h2.483a.153.153,0,0,0,.154-.13l.419-2.478a.779.779,0,0,1,.583-.637,9.44,9.44,0,0,0,2.471-1.027.815.815,0,0,1,.409-.111.784.784,0,0,1,.459.146L21.9,23.877a.161.161,0,0,0,.089.029.151.151,0,0,0,.112-.047L23.859,22.1a.164.164,0,0,0,.018-.2L22.42,19.848a.8.8,0,0,1-.036-.867,9.517,9.517,0,0,0,1.027-2.473.793.793,0,0,1,.637-.583l2.478-.413a.165.165,0,0,0,.136-.154V12.876a.153.153,0,0,0-.13-.154L24.054,12.3a.783.783,0,0,1-.638-.584A9.429,9.429,0,0,0,22.39,9.249a.791.791,0,0,1,.036-.867l1.456-2.047a.159.159,0,0,0-.018-.2L22.107,4.376a.151.151,0,0,0-.2-.017L19.871,5.822a.8.8,0,0,1-.46.146A.81.81,0,0,1,19,5.857a9.581,9.581,0,0,0-2.53-1.038.8.8,0,0,1-.591-.643l-.413-2.46a.153.153,0,0,0-.152-.13H12.834a.153.153,0,0,0-.152.13l-.426,2.5a.806.806,0,0,1-.583.637A9.294,9.294,0,0,0,9.207,5.887a.811.811,0,0,1-.873-.036L6.3,4.4a.148.148,0,0,0-.089-.029.145.145,0,0,0-.112.047L4.342,6.175a.159.159,0,0,0-.018.2L5.793,8.441a.79.79,0,0,1,.041.861,9.436,9.436,0,0,0-1.009,2.476.8.8,0,0,1-.643.591l-2.459.413a.153.153,0,0,0-.131.152v2.484a.153.153,0,0,0,.131.152L4.217,16a.807.807,0,0,1,.638.583,9.272,9.272,0,0,0,1.038,2.466.807.807,0,0,1-.036.873L4.406,21.953a.159.159,0,0,0,.018.2l1.757,1.757a.16.16,0,0,0,.112.048.176.176,0,0,0,.089-.03L8.447,22.46A.769.769,0,0,1,8.907,22.313Zm5.213-2.105a6.093,6.093,0,1,1,6.094-6.092A6.1,6.1,0,0,1,14.12,20.207Zm0-10.593a4.5,4.5,0,1,0,4.5,4.5A4.506,4.506,0,0,0,14.12,9.615Z" fill="#bfc5d2"/>
</svg>
