<svg xmlns="http://www.w3.org/2000/svg" width="28.235" height="28.23" viewBox="0 0 28.235 28.23">
  <path id="stats" d="M27.408,28.23H21.894a.917.917,0,0,1-.827-.985V12.8a.917.917,0,0,1,.827-.985h5.514a.917.917,0,0,1,.827.985V27.245A.917.917,0,0,1,27.408,28.23Zm-4.687-5.253v3.283h3.86V22.977Zm0-9.19v7.221h3.86V13.787ZM16.875,28.23H11.36a.917.917,0,0,1-.827-.985V.985A.917.917,0,0,1,11.36,0h5.514A.917.917,0,0,1,17.7.985V27.245A.917.917,0,0,1,16.875,28.23ZM12.187,16.412v9.848h3.86V16.412Zm0-14.443V14.443h3.859V1.969ZM6.342,28.23H.827A.917.917,0,0,1,0,27.245V12.8a.917.917,0,0,1,.827-.985H6.342a.917.917,0,0,1,.827.985V27.245A.917.917,0,0,1,6.342,28.23ZM1.654,22.977v3.283h3.86V22.977Zm0-9.19v7.221h3.86V13.787Z" fill="#bfc5d2"/>
</svg>
